<svg width="458" height="431" viewBox="0 0 458 431" fill="none" xmlns="http://www.w3.org/2000/svg">
<g clip-path="url(#clip0_4_7)">
<path d="M332.51 244.575V363.636L352.438 396.092L353.955 398.561H432.584L434.173 244.575H332.51Z" fill="#E6E6E6"/>
<path opacity="0.1" d="M332.51 244.575V363.636L352.438 396.092L353.661 244.575H332.51Z" fill="black"/>
<path d="M142.687 241.4V360.461L122.759 392.917L121.243 395.385H42.613L41.0243 241.4H142.687Z" fill="#E6E6E6"/>
<path opacity="0.1" d="M142.687 241.4V360.461L122.759 392.917L121.536 241.4H142.687Z" fill="black"/>
<path d="M458 239.019V246.162H30.6992V235.844L70.411 215.206H423.054L458 239.019Z" fill="#E6E6E6"/>
<path opacity="0.1" d="M458 239.019V246.162H30.6992V235.844L458 239.019Z" fill="black"/>
<path d="M91.8559 274.737H72.7937L64.8514 269.181H100.592L91.8559 274.737Z" fill="#3F3D56"/>
<path d="M91.8559 297.755H72.7937L64.8514 292.199H100.592L91.8559 297.755Z" fill="#3F3D56"/>
<path d="M91.8559 330.299H72.7937L64.8514 324.742H100.592L91.8559 330.299Z" fill="#3F3D56"/>
<path d="M91.8559 362.842H72.7937L64.8514 357.286H100.592L91.8559 362.842Z" fill="#3F3D56"/>
<path d="M383.341 277.912H402.403L410.346 272.356H374.605L383.341 277.912Z" fill="#3F3D56"/>
<path d="M383.341 300.93H402.403L410.346 295.374H374.605L383.341 300.93Z" fill="#3F3D56"/>
<path d="M383.341 333.474H402.403L410.346 327.918H374.605L383.341 333.474Z" fill="#3F3D56"/>
<path d="M383.341 366.017H402.403L410.346 360.461H374.605L383.341 366.017Z" fill="#3F3D56"/>
<path d="M396.322 77.5243H235.849C235.052 77.5242 234.262 77.681 233.526 77.9857C232.79 78.2905 232.12 78.7372 231.557 79.3005C230.993 79.8637 230.546 80.5323 230.241 81.2682C229.936 82.0041 229.78 82.7929 229.78 83.5894V191.621C229.78 192.417 229.936 193.206 230.241 193.942C230.546 194.678 230.993 195.346 231.557 195.91C232.12 196.473 232.79 196.92 233.526 197.224C234.262 197.529 235.052 197.686 235.849 197.686H296.766L294.483 212.248C294.483 212.248 281.441 219.172 290.611 219.376C299.782 219.58 342.986 219.376 342.986 219.376C342.986 219.376 351.341 219.376 338.095 212.044L335.948 197.686H396.322C397.119 197.686 397.908 197.529 398.645 197.224C399.381 196.92 400.05 196.473 400.614 195.91C401.177 195.346 401.624 194.678 401.929 193.942C402.234 193.206 402.391 192.417 402.391 191.621V83.5894C402.391 82.7929 402.234 82.0041 401.929 81.2682C401.624 80.5323 401.177 79.8637 400.614 79.3005C400.05 78.7372 399.381 78.2905 398.645 77.9857C397.908 77.681 397.119 77.5242 396.322 77.5243Z" fill="#3F3D56"/>
<path d="M396.583 83.9397H235.588V173.959H396.583V83.9397Z" fill="#F2F2F2"/>
<path d="M316.085 82.1067C316.648 82.1067 317.104 81.6508 317.104 81.0884C317.104 80.526 316.648 80.0701 316.085 80.0701C315.523 80.0701 315.066 80.526 315.066 81.0884C315.066 81.6508 315.523 82.1067 316.085 82.1067Z" fill="#F2F2F2"/>
<path d="M316.085 193.307C318.224 193.307 319.957 191.575 319.957 189.437C319.957 187.3 318.224 185.568 316.085 185.568C313.947 185.568 312.213 187.3 312.213 189.437C312.213 191.575 313.947 193.307 316.085 193.307Z" fill="#F2F2F2"/>
<path d="M310.052 230.374V232.411H200.412V230.781L200.563 230.374L203.265 223.042H307.81L310.052 230.374Z" fill="#3F3D56"/>
<path d="M352.245 228.38C352.045 229.233 351.291 230.133 349.587 230.985C343.473 234.04 331.042 230.17 331.042 230.17C331.042 230.17 321.464 228.541 321.464 224.264C321.733 224.08 322.013 223.913 322.303 223.765C324.874 222.406 333.396 219.052 348.508 223.907C349.621 224.256 350.616 224.907 351.38 225.788C351.719 226.121 351.974 226.53 352.124 226.98C352.275 227.431 352.316 227.91 352.245 228.38Z" fill="#3F3D56"/>
<path opacity="0.1" d="M352.245 228.38C344.761 231.245 338.091 231.459 331.246 226.708C328.657 224.795 325.523 223.764 322.303 223.765C324.874 222.406 333.396 219.052 348.508 223.907C349.621 224.256 350.616 224.907 351.38 225.788C351.719 226.121 351.974 226.53 352.124 226.98C352.275 227.431 352.316 227.91 352.245 228.38Z" fill="black"/>
<path d="M342.862 226.708C344.325 226.708 345.511 226.343 345.511 225.893C345.511 225.443 344.325 225.079 342.862 225.079C341.399 225.079 340.213 225.443 340.213 225.893C340.213 226.343 341.399 226.708 342.862 226.708Z" fill="#F2F2F2"/>
<path opacity="0.1" d="M310.052 230.374V232.411H200.412V230.781L200.563 230.374H310.052Z" fill="black"/>
<path d="M60.9613 9.45032e-05C59.8486 -0.0912075 58.7344 0.157542 57.7663 0.713383C56.8158 1.36392 56.2167 2.5036 55.6051 3.56414C53.267 7.66741 50.1016 11.2407 46.3096 14.0576C43.5475 16.0798 40.036 18.6011 40.5085 22.3295C40.7578 23.5607 41.213 24.7412 41.8549 25.8212C44.4029 30.9616 51.356 34.934 50.6721 40.7995C53.2037 36.5641 49.8175 34.4698 52.3491 30.2345C53.5547 28.2175 55.649 25.9407 57.4692 27.2073C58.0786 27.6315 58.4788 28.3922 59.1134 28.7643C60.6276 29.6523 62.2384 27.9547 63.5787 26.7522C68.2006 22.6058 74.7733 23.6921 80.5247 24.984C83.2399 25.5939 86.2223 26.3941 87.8274 28.9876C89.9377 32.3974 85.8223 36.0801 84.7825 39.9353C84.6976 40.2638 84.6936 40.608 84.7708 40.9384C84.8481 41.2688 85.0042 41.5755 85.2259 41.8325C85.4476 42.0894 85.7283 42.2889 86.0439 42.4138C86.3596 42.5387 86.7008 42.5853 87.0384 42.5497C88.7641 42.3796 90.8085 42.2401 90.9106 41.4833C93.0818 41.5605 95.7423 41.3148 96.6726 39.0554C96.9569 38.1614 97.1072 37.2303 97.1186 36.2923C97.46 32.497 99.0719 29.0344 100.14 25.4221C101.207 21.8098 101.672 17.5765 99.8698 14.3738C99.2266 13.3082 98.4313 12.3422 97.5089 11.5062C87.2829 1.61638 73.838 -0.0145857 60.9613 9.45032e-05Z" fill="#2F2E41"/>
<path d="M52.8961 48.2081C52.8961 48.2081 55.1201 66.7296 46.9655 68.2113C38.8109 69.693 54.3787 94.8822 54.3787 94.8822L91.4449 99.3273L82.549 69.693C82.549 69.693 76.6184 67.4704 80.3251 52.6533C84.0317 37.8361 52.8961 48.2081 52.8961 48.2081Z" fill="#FFB8B8"/>
<path d="M30.2857 366.406L33.2513 407.154H48.8185L44.3711 366.406H30.2857Z" fill="#FFB8B8"/>
<path d="M144.45 289.357L146.673 323.437L163.724 316.028L157.052 287.876L144.45 289.357Z" fill="#FFB8B8"/>
<path d="M19.1659 210.826C19.1659 210.826 19.9072 253.796 24.3551 267.872C28.8031 281.949 28.0618 282.69 27.3204 284.912C26.5791 287.135 25.8378 285.653 25.8378 289.357C25.8378 293.062 24.3552 351.589 25.8378 356.775C27.3204 361.961 21.3899 370.852 25.8378 371.593C30.2857 372.333 51.0428 371.593 51.7841 367.147C52.5254 362.702 45.8535 361.221 48.8188 358.257C51.7841 355.294 56.2321 294.543 56.2321 294.543L66.6106 252.314L85.885 230.089H126.658L139.26 278.985C139.26 278.985 134.071 293.062 137.778 293.062C141.484 293.062 163.724 297.507 163.724 281.208C163.724 264.909 156.311 216.753 154.828 215.272C153.345 213.79 155.569 208.604 153.345 206.381C151.121 204.159 125.175 188.601 115.538 185.637C105.901 182.674 92.3814 179.147 92.3814 179.147L19.1659 210.826Z" fill="#2F2E41"/>
<path d="M163.724 310.101C163.724 310.101 152.604 306.397 147.415 317.51C142.226 328.623 144.45 331.586 144.45 331.586C144.45 331.586 161.5 337.513 164.465 334.55C165.755 333.26 169.852 332.812 174.069 332.718C180.491 332.574 182.2 323.493 176.135 321.379C175.954 321.316 175.771 321.261 175.585 321.214C169.655 319.733 163.724 310.101 163.724 310.101Z" fill="#2F2E41"/>
<path d="M69.5759 60.4323C81.8585 60.4323 91.8156 50.4815 91.8156 38.2065C91.8156 25.9316 81.8585 15.9808 69.5759 15.9808C57.2932 15.9808 47.3362 25.9316 47.3362 38.2065C47.3362 50.4815 57.2932 60.4323 69.5759 60.4323Z" fill="#FFB8B8"/>
<path d="M40.6643 77.472C40.6643 77.472 76.9891 84.8806 85.885 73.0269C94.7809 61.1731 98.4875 106.365 98.4875 106.365L102.935 153.78L96.2635 179.71C96.2635 179.71 61.4213 207.863 50.3015 210.086C39.1816 212.308 22.1312 213.79 22.1312 213.79C22.1312 213.79 27.3205 131.555 27.3205 130.073C27.3205 128.591 40.6643 77.472 40.6643 77.472Z" fill="#DB8D8D"/>
<path d="M51.7115 63.5775C51.7115 63.5775 43.6296 58.9506 41.4056 63.3957C39.1816 67.8409 18.4246 78.9537 16.2006 78.9537C13.9766 78.9537 20.6485 140.445 17.6832 147.853C14.7179 155.262 0.632798 209.345 8.78736 213.79C16.9419 218.235 11.0113 209.345 19.1659 220.458C27.3204 231.57 67.3519 231.57 69.5759 227.125C71.7999 222.68 51.7841 189.342 55.4907 158.226C59.1974 127.11 65.128 84.1397 59.9387 78.2129C54.7494 72.286 51.7115 63.5775 51.7115 63.5775Z" fill="#2F2E41"/>
<path d="M78.4718 68.5817L79.5044 65.0304C79.5044 65.0304 110.349 75.2494 111.831 81.9172C113.314 88.5849 112.573 135.259 107.383 138.963C102.194 142.668 94.7809 148.594 99.9702 157.485C105.159 166.375 111.09 176.006 115.538 176.747C119.986 177.488 128.14 182.674 125.917 187.86C123.693 193.046 97.0049 183.415 97.0049 183.415C97.0049 183.415 79.2131 170.079 79.9545 149.335C80.6958 128.591 78.4718 68.5817 78.4718 68.5817Z" fill="#2F2E41"/>
<path d="M104.418 156.003L86.6263 189.342C86.6263 189.342 60.68 216.012 75.5065 218.976C90.333 221.939 98.4875 194.528 98.4875 194.528L117.762 167.116L104.418 156.003Z" fill="#FFB8B8"/>
<path d="M62.0447 5.81541C61.1483 5.74903 60.2504 5.92308 59.4438 6.31956C58.7145 6.85185 58.1135 7.54025 57.6845 8.33445C55.7072 11.3069 53.1297 13.8332 50.1176 15.7512C47.8691 17.1804 45.0106 18.9625 45.3953 21.5977C45.6041 22.4812 45.9758 23.3181 46.4913 24.0656C48.5726 27.7355 49.4012 31.9831 48.8516 36.1655L55.034 27.1849C56.0154 25.7593 57.7203 24.15 59.202 25.0453C59.6981 25.3451 60.0239 25.8828 60.5404 26.1458C61.773 26.7734 63.0843 25.5735 64.1754 24.7237C67.9378 21.793 73.2883 22.5608 77.9701 23.4739C80.1804 23.905 82.6082 24.4705 83.9148 26.3036C86.0862 29.3498 83.8189 33.7513 85.0861 37.2703C85.4409 37.0221 85.7421 36.7053 85.9721 36.3386C86.202 35.9718 86.3559 35.5627 86.4247 35.1354C88.1922 35.19 90.3579 35.0164 91.1152 33.4194C91.3455 32.7935 91.4683 32.1333 91.4782 31.4665C91.7562 28.784 93.0683 26.3367 93.9375 23.7835C94.8068 21.2304 95.1847 18.2383 93.7178 15.9746C93.1812 15.2076 92.5335 14.5246 91.796 13.9479C83.4716 6.95778 72.5269 5.80504 62.0447 5.81541Z" fill="#2F2E41"/>
<path d="M104.418 78.9537L111.325 80.7859C111.325 80.7859 127.399 121.923 123.692 150.076C119.986 178.229 117.762 172.302 117.762 172.302C117.762 172.302 111.831 158.966 98.4875 161.93L104.418 78.9537Z" fill="#2F2E41"/>
<path d="M31.3128 401.769C29.5251 404.196 29.8835 407.667 28.3 410.232C26.9274 412.456 24.3405 413.622 22.6236 415.593C22.0758 416.247 21.5874 416.949 21.1642 417.691C19.5716 420.357 18.277 423.774 19.8456 426.454C21.1074 428.61 23.7597 429.453 26.1921 430.027C29.2666 430.753 32.461 431.334 35.5709 430.779C38.6809 430.225 41.7203 428.321 42.8292 425.365C43.0471 424.622 43.3062 423.891 43.6052 423.177C45.2909 419.86 50.5781 419.824 52.3032 416.528C53.5105 414.222 52.4007 411.434 51.2914 409.078L47.9033 401.885C46.7789 399.498 42.2209 400.87 39.8447 400.298C36.7457 399.552 33.5422 398.73 31.3128 401.769Z" fill="#2F2E41"/>
<path d="M6.56339 170.82L37.699 218.976C37.699 218.976 56.9734 243.424 62.904 232.311C68.8346 221.198 42.1469 202.677 42.1469 202.677L22.1312 165.634L6.56339 170.82Z" fill="#FFB8B8"/>
<path d="M22.1312 80.4354L16.2006 78.9537C16.2006 78.9537 4.3394 82.658 1.3741 98.216C-1.59119 113.774 0.632777 176.006 4.33939 176.747C8.04601 177.488 22.6463 165.911 24.9834 168.366C27.3204 170.82 19.9072 158.226 22.1311 151.558C24.3551 144.89 22.1312 80.4354 22.1312 80.4354Z" fill="#2F2E41"/>
<path d="M300.847 113.505H281.687V118.115H300.847V113.505Z" fill="#DB8D8D"/>
<path d="M367.199 113.505H360.457V118.115H367.199V113.505Z" fill="#DB8D8D"/>
<path d="M380.682 113.505H373.94V118.115H380.682V113.505Z" fill="#DB8D8D"/>
<path d="M353.361 113.505H307.589V118.115H353.361V113.505Z" fill="#DB8D8D"/>
<path d="M276.719 143.291H257.559V147.901H276.719V143.291Z" fill="#DB8D8D"/>
<path d="M343.071 143.291H336.329V147.901H343.071V143.291Z" fill="#DB8D8D"/>
<path d="M356.554 143.291H349.812V147.901H356.554V143.291Z" fill="#DB8D8D"/>
<path d="M329.233 143.291H283.461V147.901H329.233V143.291Z" fill="#DB8D8D"/>
<path d="M355.844 123.788H336.684V128.398H355.844V123.788Z" fill="#DB8D8D"/>
<path d="M381.746 123.788H362.586V128.398H381.746V123.788Z" fill="#DB8D8D"/>
<path d="M264.301 123.788H257.559V128.398H264.301V123.788Z" fill="#DB8D8D"/>
<path d="M277.784 123.788H271.042V128.398H277.784V123.788Z" fill="#DB8D8D"/>
<path d="M330.297 123.788H284.526V128.398H330.297V123.788Z" fill="#DB8D8D"/>
<path d="M316.105 133.717H296.944V138.327H316.105V133.717Z" fill="#DB8D8D"/>
<path d="M290.203 133.717H271.042V138.327H290.203V133.717Z" fill="#DB8D8D"/>
<path d="M264.301 133.717H257.559V138.327H264.301V133.717Z" fill="#DB8D8D"/>
<path d="M381.746 133.717H375.005V138.327H381.746V133.717Z" fill="#DB8D8D"/>
<path d="M368.263 133.717H322.491V138.327H368.263V133.717Z" fill="#DB8D8D"/>
</g>
<defs>
<clipPath id="clip0_4_7">
<rect width="458" height="431" fill="white"/>
</clipPath>
</defs>
</svg>
