<svg width="174" height="199" viewBox="0 0 174 199" fill="none" xmlns="http://www.w3.org/2000/svg">
<g clip-path="url(#clip0_6_84)">
<path d="M55.9286 55.9688V74.625H118.071V55.9688C118.071 38.7895 104.167 24.875 87 24.875C69.833 24.875 55.9286 38.7895 55.9286 55.9688ZM31.0714 74.625V55.9688C31.0714 25.0693 56.1228 0 87 0C117.877 0 142.929 25.0693 142.929 55.9688V74.625H149.143C162.853 74.625 174 85.7799 174 99.5V174.125C174 187.845 162.853 199 149.143 199H24.8571C11.1469 199 0 187.845 0 174.125V99.5C0 85.7799 11.1469 74.625 24.8571 74.625H31.0714Z" fill="#CBC9C9"/>
</g>
<defs>
<clipPath id="clip0_6_84">
<rect width="174" height="199" fill="white"/>
</clipPath>
</defs>
</svg>
