<svg width="136" height="155" viewBox="0 0 136 155" fill="none" xmlns="http://www.w3.org/2000/svg">
<g clip-path="url(#clip0_6_86)">
<path d="M68 77.5C78.3056 77.5 88.189 73.4174 95.4762 66.1504C102.763 58.8834 106.857 49.0271 106.857 38.75C106.857 28.4729 102.763 18.6166 95.4762 11.3496C88.189 4.08258 78.3056 0 68 0C57.6944 0 47.811 4.08258 40.5238 11.3496C33.2367 18.6166 29.1429 28.4729 29.1429 38.75C29.1429 49.0271 33.2367 58.8834 40.5238 66.1504C47.811 73.4174 57.6944 77.5 68 77.5ZM54.1268 92.0312C24.225 92.0312 0 116.189 0 146.009C0 150.974 4.0375 155 9.01607 155H126.984C131.962 155 136 150.974 136 146.009C136 116.189 111.775 92.0312 81.8732 92.0312H54.1268Z" fill="#CBC9C9"/>
</g>
<defs>
<clipPath id="clip0_6_86">
<rect width="136" height="155" fill="white"/>
</clipPath>
</defs>
</svg>
